HIERARCHY
ROOT mug3
{
	OFFSET 0.000000 0.000000 0.000000
	CHANNELS 6 Xposition Yposition Zposition Yrotation Xrotation Zrotation
	End Site
	{
		OFFSET 0.000000 0.000000 0.000000
	}
}
MOTION
Frames: 156
Frame Time: 0.008333334
1.731607 7.552955 3.213615 8.968132 34.258030 22.669570 
1.747749 7.551723 3.167758 9.331228 32.391720 22.286660 
1.764332 7.549808 3.118963 9.676788 30.506750 21.524180 
1.781044 7.546544 3.067952 9.972648 28.479320 20.880210 
1.798034 7.542159 3.013672 10.089950 26.336990 19.900550 
1.814349 7.537040 2.957260 10.195990 24.038470 19.028280 
1.830955 7.530210 2.898254 10.373270 21.613620 18.049100 
1.847647 7.521561 2.836287 10.566890 19.080720 17.107450 
1.863667 7.511408 2.772034 10.817450 16.446080 16.166950 
1.880109 7.500207 2.707739 11.287970 13.801420 15.232700 
1.895352 7.485983 2.642255 11.711860 11.213080 14.362850 
1.910506 7.470107 2.575522 12.201550 8.687819 13.447940 
1.925124 7.451687 2.506888 12.707890 6.082273 12.452710 
1.939587 7.429893 2.438075 13.546590 3.597555 11.361610 
1.953486 7.403504 2.368078 14.415390 1.129339 10.263610 
1.968231 7.372915 2.298345 15.546180 -1.254059 9.022740 
1.982614 7.337044 2.229680 16.829390 -3.292297 7.743575 
1.996779 7.298547 2.163937 18.333060 -4.988678 6.367594 
2.010730 7.256301 2.102733 19.932400 -6.227692 5.241336 
2.024379 7.212629 2.046571 21.564160 -6.893311 4.102715 
2.037545 7.167773 1.995345 23.179720 -7.260834 3.172158 
2.049790 7.121559 1.947806 24.692610 -7.182404 2.228931 
2.061849 7.074023 1.903911 26.122100 -6.905975 1.403220 
2.073093 7.025040 1.864504 27.287420 -6.413666 0.629143 
2.082970 6.975477 1.830011 28.253250 -5.746368 -0.218323 
2.091748 6.925089 1.798997 28.973040 -5.041595 -1.051147 
2.100293 6.874438 1.771037 29.609850 -4.334015 -1.758392 
2.107359 6.824167 1.746196 30.068950 -3.574188 -2.472351 
2.114121 6.774310 1.723388 30.587710 -2.892517 -3.174103 
2.119511 6.726400 1.702905 30.910350 -2.306396 -3.871246 
2.124437 6.681609 1.683834 31.276290 -1.759644 -4.593292 
2.128044 6.639840 1.665757 31.533440 -1.403717 -5.228485 
2.130250 6.602596 1.648459 31.715330 -1.235626 -5.877747 
2.131910 6.569194 1.631286 31.963550 -1.185608 -6.278717 
2.132597 6.540877 1.614830 32.203920 -1.295410 -6.667267 
2.132312 6.516734 1.598173 32.428680 -1.386810 -6.923340 
2.130985 6.498128 1.582797 32.684580 -1.472595 -7.053833 
2.129646 6.484813 1.568236 33.011490 -1.556610 -7.060211 
2.127167 6.475759 1.554894 33.257760 -1.617340 -6.901001 
2.124813 6.471382 1.542773 33.574200 -1.688843 -6.628510 
2.120637 6.471269 1.531198 33.717300 -1.787689 -6.322357 
2.115956 6.474456 1.521016 33.900090 -1.740417 -6.029816 
2.111076 6.482396 1.511718 34.089940 -1.932373 -5.663849 
2.105032 6.493498 1.503673 34.233610 -2.064240 -5.222504 
2.098525 6.508356 1.495042 34.299520 -2.300659 -4.740356 
2.091893 6.526095 1.486785 34.504340 -2.509674 -4.127777 
2.084733 6.547941 1.479209 34.677560 -2.746094 -3.554932 
2.078100 6.573080 1.474757 34.926010 -2.834900 -3.000549 
2.071156 6.601129 1.472220 35.131470 -2.898560 -2.214478 
2.064799 6.632271 1.472387 35.250120 -2.659485 -1.336853 
2.058618 6.666763 1.476560 35.316180 -2.277374 -0.312225 
2.051987 6.703843 1.483650 35.369460 -1.762939 0.790925 
2.045962 6.742053 1.493392 35.243870 -1.207367 2.121900 
2.039695 6.782358 1.506978 35.261940 -0.504273 3.219681 
2.032956 6.823286 1.521793 35.138360 0.126104 4.348480 
2.025868 6.865477 1.538861 34.979420 0.697503 5.521411 
2.018640 6.908391 1.556964 34.748300 1.286074 6.710507 
2.011551 6.952238 1.578156 34.542190 2.000469 7.785093 
2.004549 6.996907 1.602475 34.312360 2.805725 9.083908 
1.997653 7.041666 1.630671 34.249150 3.852829 10.430300 
1.991287 7.086389 1.662894 34.139670 5.142457 11.909840 
1.985089 7.130461 1.697912 34.007780 6.559726 13.342900 
1.978516 7.173785 1.735119 33.785250 8.063622 14.817070 
1.971958 7.214460 1.774596 33.736030 9.790001 16.408410 
1.965531 7.254286 1.814916 33.659970 11.472420 17.710290 
1.960332 7.292163 1.855409 33.788000 13.090820 19.126090 
1.954525 7.327901 1.896710 33.843890 14.667550 20.384960 
1.949685 7.361903 1.938698 34.012500 16.305370 21.638400 
1.945847 7.393476 1.982502 34.259200 17.964240 22.838380 
1.940790 7.423104 2.028819 34.490190 19.724030 24.176850 
1.935679 7.451045 2.076622 34.630720 21.647930 25.349460 
1.931378 7.476894 2.125060 34.827390 23.439200 27.063930 
1.926374 7.499944 2.176887 35.166730 25.318380 28.658570 
1.920766 7.521269 2.228676 35.265800 27.280090 30.143970 
1.914003 7.539561 2.281277 35.139320 29.272080 31.498450 
1.906822 7.554172 2.333660 35.150280 31.221430 32.858430 
1.900299 7.565539 2.386400 35.116620 33.273380 34.101810 
1.893143 7.574097 2.439864 35.178550 35.228850 35.301230 
1.886989 7.579728 2.491837 35.103390 37.232980 36.614220 
1.878982 7.582832 2.544746 34.968540 39.431540 37.580360 
1.871131 7.583148 2.596404 34.816880 41.460580 38.588380 
1.863088 7.581367 2.647063 34.542590 43.379620 39.419770 
1.854612 7.578446 2.696256 34.111240 45.215320 40.011670 
1.846864 7.573569 2.742690 33.722550 46.950480 40.571660 
1.839351 7.567383 2.788248 33.306140 48.616950 40.826610 
1.832760 7.559471 2.830397 32.764750 50.164180 41.170050 
1.827340 7.550594 2.872377 32.592740 51.679360 41.419950 
1.822352 7.542196 2.910348 32.196030 53.120820 41.655880 
1.817453 7.532988 2.946843 31.951810 54.276310 41.932340 
1.813132 7.524984 2.980161 31.575420 55.371830 42.170750 
1.808297 7.516920 3.012869 31.036270 56.372730 42.019020 
1.805032 7.507848 3.044659 30.900220 57.411980 42.026180 
1.802065 7.497681 3.072942 30.882100 58.298080 42.709260 
1.799367 7.488116 3.100340 30.916020 59.252160 43.102050 
1.797931 7.478726 3.125508 31.114090 59.983490 43.581910 
1.795822 7.470706 3.150823 30.969500 60.477530 43.768880 
1.793070 7.464472 3.174111 30.677940 60.921540 43.889470 
1.790553 7.460099 3.195701 30.273490 61.359400 43.617120 
1.787418 7.456867 3.216157 29.493060 61.428390 43.175850 
1.784438 7.454690 3.233756 28.523140 61.402460 42.651330 
1.782033 7.454000 3.250048 27.179800 61.240150 41.595060 
1.779453 7.453226 3.263115 25.887240 61.221380 40.578780 
1.777715 7.453141 3.274390 24.559510 61.000070 39.539360 
1.777816 7.452350 3.283503 23.394530 60.764800 38.677550 
1.777831 7.451870 3.290577 22.290220 60.629140 37.651530 
1.779811 7.450683 3.295660 21.346970 60.434260 36.908960 
1.782796 7.449747 3.298157 20.573900 60.231660 36.228690 
1.786082 7.449527 3.299177 19.934500 59.938130 35.713710 
1.789962 7.449546 3.298136 19.259120 59.546010 35.061270 
1.795062 7.450377 3.295649 18.844770 59.081190 34.547180 
1.801048 7.452230 3.290888 18.318830 58.452210 33.981710 
1.807508 7.455801 3.283834 17.693700 57.690300 33.257500 
1.813623 7.459897 3.275074 17.017990 56.708740 32.551280 
1.820694 7.466574 3.264249 16.144950 55.583120 31.443450 
1.827705 7.473424 3.252026 15.402450 54.376060 30.437040 
1.835821 7.481174 3.238132 14.747600 52.899980 29.555700 
1.843892 7.489125 3.222737 14.245950 51.381650 28.863490 
1.851963 7.496768 3.206447 13.720330 49.757300 28.345220 
1.860246 7.503364 3.188891 13.466110 48.158220 27.885680 
1.868208 7.509622 3.169092 13.001410 46.433300 27.312230 
1.875414 7.515052 3.148106 12.610670 44.753310 26.681020 
1.883650 7.519480 3.125023 12.302210 42.961880 26.184680 
1.891983 7.522519 3.099420 11.996170 41.124430 25.513770 
1.900064 7.525655 3.071455 11.366850 39.014270 24.637110 
1.908065 7.527874 3.039813 10.775240 36.865910 23.775940 
1.916602 7.529922 3.005979 10.266600 34.671790 22.719850 
1.925598 7.530701 2.968516 9.941438 32.241480 21.998020 
1.934433 7.530505 2.929142 9.568262 29.753480 21.252250 
1.942847 7.529112 2.887547 9.365314 27.234300 20.682590 
1.952399 7.525713 2.845445 9.367346 24.706660 20.258760 
1.961834 7.519650 2.801765 9.491261 22.375910 19.785430 
1.971773 7.511288 2.757522 9.831963 20.034550 19.472680 
1.982554 7.500735 2.711065 10.163740 17.729840 18.944960 
1.993068 7.487602 2.662594 10.591980 15.508090 18.351510 
2.003930 7.469836 2.610120 11.067650 13.236040 17.634380 
2.014792 7.452071 2.557646 11.568220 10.969980 16.904140 
2.026289 7.428840 2.503313 12.238700 8.744212 15.913570 
2.037630 7.402561 2.447270 12.988370 6.623733 14.944680 
2.047718 7.373418 2.390727 13.793220 4.593899 13.888040 
2.058895 7.341337 2.334970 14.837830 2.758071 12.870650 
2.069598 7.306419 2.280010 15.865260 0.994941 12.042200 
2.079690 7.268925 2.226336 17.036030 -0.445129 10.932380 
2.089457 7.228788 2.175039 18.270270 -1.648560 9.972139 
2.099312 7.187397 2.125695 19.603110 -2.575531 8.917139 
2.108466 7.143869 2.079667 21.009970 -3.150146 7.963419 
2.117725 7.099148 2.036065 22.523120 -3.585419 7.099785 
2.126095 7.053267 1.995032 23.899590 -3.756958 6.163385 
2.134402 7.006532 1.956586 25.364770 -3.772644 5.277723 
2.141834 6.959387 1.919646 26.737270 -3.614044 4.276685 
2.148749 6.912428 1.885607 28.122710 -3.373993 3.411343 
2.154822 6.866009 1.853771 29.370290 -3.122803 2.358285 
2.160139 6.821203 1.823103 30.467830 -2.879700 1.470034 
2.164691 6.778552 1.796011 31.433870 -2.698608 0.513247 
2.168539 6.738606 1.770817 32.183120 -2.598511 -0.175934 
2.171373 6.701317 1.748783 32.742210 -2.529205 -0.792999 
2.173346 6.667587 1.729488 33.095150 -2.552124 -1.356720 
